<?xml version="1.0" encoding="UTF-8" standalone="no"?>
<!DOCTYPE svg PUBLIC "-//W3C//DTD SVG 1.1//EN"
 "http://www.w3.org/Graphics/SVG/1.1/DTD/svg11.dtd">
<!-- Generated by graphviz version 2.47.3 (20210619.1520)
 -->
<!-- Title: dependencies Pages: 1 -->
<svg width="1942pt" height="247pt"
 viewBox="0.00 0.00 1942.00 246.80" xmlns="http://www.w3.org/2000/svg" xmlns:xlink="http://www.w3.org/1999/xlink">
<g id="graph0" class="graph" transform="scale(1 1) rotate(0) translate(4 242.8)">
<title>dependencies</title>
<polygon fill="white" stroke="transparent" points="-4,4 -4,-242.8 1938,-242.8 1938,4 -4,4"/>
<text text-anchor="middle" x="967" y="-8.2" font-family="sans-serif" font-size="14.00">dependencies</text>
<g id="clust1" class="cluster">
<title>cluster_AppModule</title>
<polygon fill="none" stroke="black" stroke-dasharray="1,5" points="8,-32.8 8,-230.8 1926,-230.8 1926,-32.8 8,-32.8"/>
</g>
<g id="clust2" class="cluster">
<title>cluster_AppModule_declarations</title>
<polygon fill="none" stroke="black" points="168,-40.8 168,-92.8 1918,-92.8 1918,-40.8 168,-40.8"/>
</g>
<g id="clust15" class="cluster">
<title>cluster_AppModule_imports</title>
<polygon fill="none" stroke="black" points="16,-40.8 16,-92.8 160,-92.8 160,-40.8 16,-40.8"/>
</g>
<g id="clust17" class="cluster">
<title>cluster_AppModule_bootstrap</title>
<polygon fill="none" stroke="black" points="956,-170.8 956,-222.8 1080,-222.8 1080,-170.8 956,-170.8"/>
</g>
<!-- AlertasComponent -->
<g id="node1" class="node">
<title>AlertasComponent</title>
<polygon fill="#ffffb3" stroke="black" points="1909.75,-84.8 1788.25,-84.8 1788.25,-48.8 1909.75,-48.8 1909.75,-84.8"/>
<text text-anchor="middle" x="1849" y="-62.6" font-family="Times,serif" font-size="14.00">AlertasComponent</text>
</g>
<!-- AppModule -->
<g id="node13" class="node">
<title>AppModule</title>
<polygon fill="#8dd3c7" stroke="black" points="1059.66,-149.8 1056.66,-153.8 1035.66,-153.8 1032.66,-149.8 976.34,-149.8 976.34,-113.8 1059.66,-113.8 1059.66,-149.8"/>
<text text-anchor="middle" x="1018" y="-127.6" font-family="Times,serif" font-size="14.00">AppModule</text>
</g>
<!-- AlertasComponent&#45;&gt;AppModule -->
<g id="edge1" class="edge">
<title>AlertasComponent&#45;&gt;AppModule</title>
<path fill="none" stroke="black" d="M1849,-84.89C1849,-107.93 1849,-144.8 1849,-144.8 1849,-144.8 1069.78,-144.8 1069.78,-144.8"/>
<polygon fill="black" stroke="black" points="1069.78,-141.3 1059.78,-144.8 1069.78,-148.3 1069.78,-141.3"/>
</g>
<!-- AppComponent -->
<g id="node2" class="node">
<title>AppComponent</title>
<polygon fill="#ffffb3" stroke="black" points="1769.94,-84.8 1664.06,-84.8 1664.06,-48.8 1769.94,-48.8 1769.94,-84.8"/>
<text text-anchor="middle" x="1717" y="-62.6" font-family="Times,serif" font-size="14.00">AppComponent</text>
</g>
<!-- AppComponent&#45;&gt;AppModule -->
<g id="edge2" class="edge">
<title>AppComponent&#45;&gt;AppModule</title>
<path fill="none" stroke="black" d="M1717,-84.84C1717,-106.46 1717,-139.8 1717,-139.8 1717,-139.8 1069.89,-139.8 1069.89,-139.8"/>
<polygon fill="black" stroke="black" points="1069.89,-136.3 1059.89,-139.8 1069.89,-143.3 1069.89,-136.3"/>
</g>
<!-- CadastrarComponent -->
<g id="node3" class="node">
<title>CadastrarComponent</title>
<polygon fill="#ffffb3" stroke="black" points="1646.47,-84.8 1511.53,-84.8 1511.53,-48.8 1646.47,-48.8 1646.47,-84.8"/>
<text text-anchor="middle" x="1579" y="-62.6" font-family="Times,serif" font-size="14.00">CadastrarComponent</text>
</g>
<!-- CadastrarComponent&#45;&gt;AppModule -->
<g id="edge3" class="edge">
<title>CadastrarComponent&#45;&gt;AppModule</title>
<path fill="none" stroke="black" d="M1579,-85.02C1579,-105.17 1579,-134.8 1579,-134.8 1579,-134.8 1069.71,-134.8 1069.71,-134.8"/>
<polygon fill="black" stroke="black" points="1069.71,-131.3 1059.71,-134.8 1069.71,-138.3 1069.71,-131.3"/>
</g>
<!-- InicioComponent -->
<g id="node4" class="node">
<title>InicioComponent</title>
<polygon fill="#ffffb3" stroke="black" points="1493.99,-84.8 1380.01,-84.8 1380.01,-48.8 1493.99,-48.8 1493.99,-84.8"/>
<text text-anchor="middle" x="1437" y="-62.6" font-family="Times,serif" font-size="14.00">InicioComponent</text>
</g>
<!-- InicioComponent&#45;&gt;AppModule -->
<g id="edge4" class="edge">
<title>InicioComponent&#45;&gt;AppModule</title>
<path fill="none" stroke="black" d="M1437,-85.02C1437,-103.63 1437,-129.8 1437,-129.8 1437,-129.8 1069.71,-129.8 1069.71,-129.8"/>
<polygon fill="black" stroke="black" points="1069.71,-126.3 1059.71,-129.8 1069.71,-133.3 1069.71,-126.3"/>
</g>
<!-- LoginComponent -->
<g id="node5" class="node">
<title>LoginComponent</title>
<polygon fill="#ffffb3" stroke="black" points="1362.28,-84.8 1247.72,-84.8 1247.72,-48.8 1362.28,-48.8 1362.28,-84.8"/>
<text text-anchor="middle" x="1305" y="-62.6" font-family="Times,serif" font-size="14.00">LoginComponent</text>
</g>
<!-- LoginComponent&#45;&gt;AppModule -->
<g id="edge5" class="edge">
<title>LoginComponent&#45;&gt;AppModule</title>
<path fill="none" stroke="black" d="M1305,-84.83C1305,-101.86 1305,-124.8 1305,-124.8 1305,-124.8 1069.73,-124.8 1069.73,-124.8"/>
<polygon fill="black" stroke="black" points="1069.73,-121.3 1059.73,-124.8 1069.73,-128.3 1069.73,-121.3"/>
</g>
<!-- MenuComponent -->
<g id="node6" class="node">
<title>MenuComponent</title>
<polygon fill="#ffffb3" stroke="black" points="1229.99,-84.8 1116.01,-84.8 1116.01,-48.8 1229.99,-48.8 1229.99,-84.8"/>
<text text-anchor="middle" x="1173" y="-62.6" font-family="Times,serif" font-size="14.00">MenuComponent</text>
</g>
<!-- MenuComponent&#45;&gt;AppModule -->
<g id="edge6" class="edge">
<title>MenuComponent&#45;&gt;AppModule</title>
<path fill="none" stroke="black" d="M1173,-85.04C1173,-100.37 1173,-119.8 1173,-119.8 1173,-119.8 1069.95,-119.8 1069.95,-119.8"/>
<polygon fill="black" stroke="black" points="1069.95,-116.3 1059.95,-119.8 1069.95,-123.3 1069.95,-116.3"/>
</g>
<!-- PostagemEditComponent -->
<g id="node7" class="node">
<title>PostagemEditComponent</title>
<polygon fill="#ffffb3" stroke="black" points="1097.6,-84.8 938.4,-84.8 938.4,-48.8 1097.6,-48.8 1097.6,-84.8"/>
<text text-anchor="middle" x="1018" y="-62.6" font-family="Times,serif" font-size="14.00">PostagemEditComponent</text>
</g>
<!-- PostagemEditComponent&#45;&gt;AppModule -->
<g id="edge7" class="edge">
<title>PostagemEditComponent&#45;&gt;AppModule</title>
<path fill="none" stroke="black" d="M1018,-84.91C1018,-84.91 1018,-103.79 1018,-103.79"/>
<polygon fill="black" stroke="black" points="1014.5,-103.79 1018,-113.79 1021.5,-103.79 1014.5,-103.79"/>
</g>
<!-- RodapeComponent -->
<g id="node8" class="node">
<title>RodapeComponent</title>
<polygon fill="#ffffb3" stroke="black" points="920.1,-84.8 795.9,-84.8 795.9,-48.8 920.1,-48.8 920.1,-84.8"/>
<text text-anchor="middle" x="858" y="-62.6" font-family="Times,serif" font-size="14.00">RodapeComponent</text>
</g>
<!-- RodapeComponent&#45;&gt;AppModule -->
<g id="edge8" class="edge">
<title>RodapeComponent&#45;&gt;AppModule</title>
<path fill="none" stroke="black" d="M858,-85.04C858,-100.37 858,-119.8 858,-119.8 858,-119.8 965.96,-119.8 965.96,-119.8"/>
<polygon fill="black" stroke="black" points="965.96,-123.3 975.96,-119.8 965.96,-116.3 965.96,-123.3"/>
</g>
<!-- TemaComponent -->
<g id="node9" class="node">
<title>TemaComponent</title>
<polygon fill="#ffffb3" stroke="black" points="777.7,-84.8 664.3,-84.8 664.3,-48.8 777.7,-48.8 777.7,-84.8"/>
<text text-anchor="middle" x="721" y="-62.6" font-family="Times,serif" font-size="14.00">TemaComponent</text>
</g>
<!-- TemaComponent&#45;&gt;AppModule -->
<g id="edge9" class="edge">
<title>TemaComponent&#45;&gt;AppModule</title>
<path fill="none" stroke="black" d="M721,-84.83C721,-101.86 721,-124.8 721,-124.8 721,-124.8 966.08,-124.8 966.08,-124.8"/>
<polygon fill="black" stroke="black" points="966.08,-128.3 976.08,-124.8 966.08,-121.3 966.08,-128.3"/>
</g>
<!-- TemaDeleteComponent -->
<g id="node10" class="node">
<title>TemaDeleteComponent</title>
<polygon fill="#ffffb3" stroke="black" points="646.74,-84.8 497.26,-84.8 497.26,-48.8 646.74,-48.8 646.74,-84.8"/>
<text text-anchor="middle" x="572" y="-62.6" font-family="Times,serif" font-size="14.00">TemaDeleteComponent</text>
</g>
<!-- TemaDeleteComponent&#45;&gt;AppModule -->
<g id="edge10" class="edge">
<title>TemaDeleteComponent&#45;&gt;AppModule</title>
<path fill="none" stroke="black" d="M572,-85.02C572,-103.63 572,-129.8 572,-129.8 572,-129.8 966.04,-129.8 966.04,-129.8"/>
<polygon fill="black" stroke="black" points="966.04,-133.3 976.04,-129.8 966.04,-126.3 966.04,-133.3"/>
</g>
<!-- TemaEditComponent -->
<g id="node11" class="node">
<title>TemaEditComponent</title>
<polygon fill="#ffffb3" stroke="black" points="479.04,-84.8 342.96,-84.8 342.96,-48.8 479.04,-48.8 479.04,-84.8"/>
<text text-anchor="middle" x="411" y="-62.6" font-family="Times,serif" font-size="14.00">TemaEditComponent</text>
</g>
<!-- TemaEditComponent&#45;&gt;AppModule -->
<g id="edge11" class="edge">
<title>TemaEditComponent&#45;&gt;AppModule</title>
<path fill="none" stroke="black" d="M411,-85.02C411,-105.17 411,-134.8 411,-134.8 411,-134.8 966.28,-134.8 966.28,-134.8"/>
<polygon fill="black" stroke="black" points="966.28,-138.3 976.28,-134.8 966.28,-131.3 966.28,-138.3"/>
</g>
<!-- UsuarioEditComponent -->
<g id="node12" class="node">
<title>UsuarioEditComponent</title>
<polygon fill="#ffffb3" stroke="black" points="324.48,-84.8 175.52,-84.8 175.52,-48.8 324.48,-48.8 324.48,-84.8"/>
<text text-anchor="middle" x="250" y="-62.6" font-family="Times,serif" font-size="14.00">UsuarioEditComponent</text>
</g>
<!-- UsuarioEditComponent&#45;&gt;AppModule -->
<g id="edge12" class="edge">
<title>UsuarioEditComponent&#45;&gt;AppModule</title>
<path fill="none" stroke="black" d="M250,-84.84C250,-106.46 250,-139.8 250,-139.8 250,-139.8 966.16,-139.8 966.16,-139.8"/>
<polygon fill="black" stroke="black" points="966.16,-143.3 976.16,-139.8 966.16,-136.3 966.16,-143.3"/>
</g>
<!-- AppComponent  -->
<g id="node15" class="node">
<title>AppComponent </title>
<polygon fill="#80b1d3" stroke="black" points="1072.44,-214.8 963.56,-214.8 963.56,-178.8 1072.44,-178.8 1072.44,-214.8"/>
<text text-anchor="middle" x="1018" y="-192.6" font-family="Times,serif" font-size="14.00">AppComponent </text>
</g>
<!-- AppModule&#45;&gt;AppComponent  -->
<g id="edge14" class="edge">
<title>AppModule&#45;&gt;AppComponent </title>
<path fill="none" stroke="black" stroke-dasharray="1,5" d="M1018,-149.91C1018,-149.91 1018,-168.79 1018,-168.79"/>
<polygon fill="black" stroke="black" points="1014.5,-168.79 1018,-178.79 1021.5,-168.79 1014.5,-168.79"/>
</g>
<!-- AppRoutingModule -->
<g id="node14" class="node">
<title>AppRoutingModule</title>
<polygon fill="#8dd3c7" stroke="black" points="152.27,-84.8 149.27,-88.8 128.27,-88.8 125.27,-84.8 23.73,-84.8 23.73,-48.8 152.27,-48.8 152.27,-84.8"/>
<text text-anchor="middle" x="88" y="-62.6" font-family="Times,serif" font-size="14.00">AppRoutingModule</text>
</g>
<!-- AppRoutingModule&#45;&gt;AppModule -->
<g id="edge13" class="edge">
<title>AppRoutingModule&#45;&gt;AppModule</title>
<path fill="none" stroke="black" d="M88,-84.89C88,-107.93 88,-144.8 88,-144.8 88,-144.8 966.23,-144.8 966.23,-144.8"/>
<polygon fill="black" stroke="black" points="966.23,-148.3 976.23,-144.8 966.23,-141.3 966.23,-148.3"/>
</g>
</g>
</svg>
