<?xml version="1.0" encoding="UTF-8" standalone="no"?>
<!DOCTYPE svg PUBLIC "-//W3C//DTD SVG 1.1//EN"
 "http://www.w3.org/Graphics/SVG/1.1/DTD/svg11.dtd">
<!-- Generated by graphviz version 2.47.3 (20210619.1520)
 -->
<!-- Title: dependencies Pages: 1 -->
<svg width="1942pt" height="247pt"
 viewBox="0.00 0.00 1942.00 246.80" xmlns="http://www.w3.org/2000/svg" xmlns:xlink="http://www.w3.org/1999/xlink">
<g id="graph0" class="graph" transform="scale(1 1) rotate(0) translate(4 242.8)">
<title>dependencies</title>
<polygon fill="white" stroke="transparent" points="-4,4 -4,-242.8 1938,-242.8 1938,4 -4,4"/>
<text text-anchor="middle" x="967" y="-8.2" font-family="sans-serif" font-size="14.00">dependencies</text>
<g id="clust1" class="cluster">
<title>cluster_AppModule</title>
<polygon fill="none" stroke="black" stroke-dasharray="1,5" points="8,-32.8 8,-230.8 1926,-230.8 1926,-32.8 8,-32.8"/>
</g>
<g id="clust15" class="cluster">
<title>cluster_AppModule_imports</title>
<polygon fill="none" stroke="black" points="1774,-40.8 1774,-92.8 1918,-92.8 1918,-40.8 1774,-40.8"/>
</g>
<g id="clust17" class="cluster">
<title>cluster_AppModule_bootstrap</title>
<polygon fill="none" stroke="black" points="959,-170.8 959,-222.8 1083,-222.8 1083,-170.8 959,-170.8"/>
</g>
<g id="clust2" class="cluster">
<title>cluster_AppModule_declarations</title>
<polygon fill="none" stroke="black" points="16,-40.8 16,-92.8 1766,-92.8 1766,-40.8 16,-40.8"/>
</g>
<!-- AlertasComponent -->
<g id="node1" class="node">
<title>AlertasComponent</title>
<polygon fill="#ffffb3" stroke="black" points="1757.75,-84.8 1636.25,-84.8 1636.25,-48.8 1757.75,-48.8 1757.75,-84.8"/>
<text text-anchor="middle" x="1697" y="-62.6" font-family="Times,serif" font-size="14.00">AlertasComponent</text>
</g>
<!-- AppModule -->
<g id="node13" class="node">
<title>AppModule</title>
<polygon fill="#8dd3c7" stroke="black" points="1062.66,-149.8 1059.66,-153.8 1038.66,-153.8 1035.66,-149.8 979.34,-149.8 979.34,-113.8 1062.66,-113.8 1062.66,-149.8"/>
<text text-anchor="middle" x="1021" y="-127.6" font-family="Times,serif" font-size="14.00">AppModule</text>
</g>
<!-- AlertasComponent&#45;&gt;AppModule -->
<g id="edge1" class="edge">
<title>AlertasComponent&#45;&gt;AppModule</title>
<path fill="none" stroke="black" d="M1697,-84.84C1697,-106.46 1697,-139.8 1697,-139.8 1697,-139.8 1072.78,-139.8 1072.78,-139.8"/>
<polygon fill="black" stroke="black" points="1072.78,-136.3 1062.78,-139.8 1072.78,-143.3 1072.78,-136.3"/>
</g>
<!-- AppComponent -->
<g id="node2" class="node">
<title>AppComponent</title>
<polygon fill="#ffffb3" stroke="black" points="1617.94,-84.8 1512.06,-84.8 1512.06,-48.8 1617.94,-48.8 1617.94,-84.8"/>
<text text-anchor="middle" x="1565" y="-62.6" font-family="Times,serif" font-size="14.00">AppComponent</text>
</g>
<!-- AppComponent&#45;&gt;AppModule -->
<g id="edge2" class="edge">
<title>AppComponent&#45;&gt;AppModule</title>
<path fill="none" stroke="black" d="M1565,-85.02C1565,-105.17 1565,-134.8 1565,-134.8 1565,-134.8 1072.78,-134.8 1072.78,-134.8"/>
<polygon fill="black" stroke="black" points="1072.78,-131.3 1062.78,-134.8 1072.78,-138.3 1072.78,-131.3"/>
</g>
<!-- CadastrarComponent -->
<g id="node3" class="node">
<title>CadastrarComponent</title>
<polygon fill="#ffffb3" stroke="black" points="1494.47,-84.8 1359.53,-84.8 1359.53,-48.8 1494.47,-48.8 1494.47,-84.8"/>
<text text-anchor="middle" x="1427" y="-62.6" font-family="Times,serif" font-size="14.00">CadastrarComponent</text>
</g>
<!-- CadastrarComponent&#45;&gt;AppModule -->
<g id="edge3" class="edge">
<title>CadastrarComponent&#45;&gt;AppModule</title>
<path fill="none" stroke="black" d="M1427,-85.02C1427,-103.63 1427,-129.8 1427,-129.8 1427,-129.8 1072.92,-129.8 1072.92,-129.8"/>
<polygon fill="black" stroke="black" points="1072.92,-126.3 1062.92,-129.8 1072.92,-133.3 1072.92,-126.3"/>
</g>
<!-- InicioComponent -->
<g id="node4" class="node">
<title>InicioComponent</title>
<polygon fill="#ffffb3" stroke="black" points="1341.99,-84.8 1228.01,-84.8 1228.01,-48.8 1341.99,-48.8 1341.99,-84.8"/>
<text text-anchor="middle" x="1285" y="-62.6" font-family="Times,serif" font-size="14.00">InicioComponent</text>
</g>
<!-- InicioComponent&#45;&gt;AppModule -->
<g id="edge4" class="edge">
<title>InicioComponent&#45;&gt;AppModule</title>
<path fill="none" stroke="black" d="M1285,-84.83C1285,-101.86 1285,-124.8 1285,-124.8 1285,-124.8 1072.83,-124.8 1072.83,-124.8"/>
<polygon fill="black" stroke="black" points="1072.83,-121.3 1062.83,-124.8 1072.83,-128.3 1072.83,-121.3"/>
</g>
<!-- LoginComponent -->
<g id="node5" class="node">
<title>LoginComponent</title>
<polygon fill="#ffffb3" stroke="black" points="1210.28,-84.8 1095.72,-84.8 1095.72,-48.8 1210.28,-48.8 1210.28,-84.8"/>
<text text-anchor="middle" x="1153" y="-62.6" font-family="Times,serif" font-size="14.00">LoginComponent</text>
</g>
<!-- LoginComponent&#45;&gt;AppModule -->
<g id="edge5" class="edge">
<title>LoginComponent&#45;&gt;AppModule</title>
<path fill="none" stroke="black" d="M1153,-85.04C1153,-100.37 1153,-119.8 1153,-119.8 1153,-119.8 1072.77,-119.8 1072.77,-119.8"/>
<polygon fill="black" stroke="black" points="1072.77,-116.3 1062.77,-119.8 1072.77,-123.3 1072.77,-116.3"/>
</g>
<!-- MenuComponent -->
<g id="node6" class="node">
<title>MenuComponent</title>
<polygon fill="#ffffb3" stroke="black" points="1077.99,-84.8 964.01,-84.8 964.01,-48.8 1077.99,-48.8 1077.99,-84.8"/>
<text text-anchor="middle" x="1021" y="-62.6" font-family="Times,serif" font-size="14.00">MenuComponent</text>
</g>
<!-- MenuComponent&#45;&gt;AppModule -->
<g id="edge6" class="edge">
<title>MenuComponent&#45;&gt;AppModule</title>
<path fill="none" stroke="black" d="M1021,-84.91C1021,-84.91 1021,-103.79 1021,-103.79"/>
<polygon fill="black" stroke="black" points="1017.5,-103.79 1021,-113.79 1024.5,-103.79 1017.5,-103.79"/>
</g>
<!-- PostagemEditComponent -->
<g id="node7" class="node">
<title>PostagemEditComponent</title>
<polygon fill="#ffffb3" stroke="black" points="945.6,-84.8 786.4,-84.8 786.4,-48.8 945.6,-48.8 945.6,-84.8"/>
<text text-anchor="middle" x="866" y="-62.6" font-family="Times,serif" font-size="14.00">PostagemEditComponent</text>
</g>
<!-- PostagemEditComponent&#45;&gt;AppModule -->
<g id="edge7" class="edge">
<title>PostagemEditComponent&#45;&gt;AppModule</title>
<path fill="none" stroke="black" d="M866,-85.04C866,-100.37 866,-119.8 866,-119.8 866,-119.8 969.05,-119.8 969.05,-119.8"/>
<polygon fill="black" stroke="black" points="969.05,-123.3 979.05,-119.8 969.05,-116.3 969.05,-123.3"/>
</g>
<!-- RodapeComponent -->
<g id="node8" class="node">
<title>RodapeComponent</title>
<polygon fill="#ffffb3" stroke="black" points="768.1,-84.8 643.9,-84.8 643.9,-48.8 768.1,-48.8 768.1,-84.8"/>
<text text-anchor="middle" x="706" y="-62.6" font-family="Times,serif" font-size="14.00">RodapeComponent</text>
</g>
<!-- RodapeComponent&#45;&gt;AppModule -->
<g id="edge8" class="edge">
<title>RodapeComponent&#45;&gt;AppModule</title>
<path fill="none" stroke="black" d="M706,-84.83C706,-101.86 706,-124.8 706,-124.8 706,-124.8 969.17,-124.8 969.17,-124.8"/>
<polygon fill="black" stroke="black" points="969.17,-128.3 979.17,-124.8 969.17,-121.3 969.17,-128.3"/>
</g>
<!-- TemaComponent -->
<g id="node9" class="node">
<title>TemaComponent</title>
<polygon fill="#ffffb3" stroke="black" points="625.7,-84.8 512.3,-84.8 512.3,-48.8 625.7,-48.8 625.7,-84.8"/>
<text text-anchor="middle" x="569" y="-62.6" font-family="Times,serif" font-size="14.00">TemaComponent</text>
</g>
<!-- TemaComponent&#45;&gt;AppModule -->
<g id="edge9" class="edge">
<title>TemaComponent&#45;&gt;AppModule</title>
<path fill="none" stroke="black" d="M569,-85.02C569,-103.63 569,-129.8 569,-129.8 569,-129.8 969.29,-129.8 969.29,-129.8"/>
<polygon fill="black" stroke="black" points="969.29,-133.3 979.29,-129.8 969.29,-126.3 969.29,-133.3"/>
</g>
<!-- TemaDeleteComponent -->
<g id="node10" class="node">
<title>TemaDeleteComponent</title>
<polygon fill="#ffffb3" stroke="black" points="494.74,-84.8 345.26,-84.8 345.26,-48.8 494.74,-48.8 494.74,-84.8"/>
<text text-anchor="middle" x="420" y="-62.6" font-family="Times,serif" font-size="14.00">TemaDeleteComponent</text>
</g>
<!-- TemaDeleteComponent&#45;&gt;AppModule -->
<g id="edge10" class="edge">
<title>TemaDeleteComponent&#45;&gt;AppModule</title>
<path fill="none" stroke="black" d="M420,-85.02C420,-105.17 420,-134.8 420,-134.8 420,-134.8 969.22,-134.8 969.22,-134.8"/>
<polygon fill="black" stroke="black" points="969.22,-138.3 979.22,-134.8 969.22,-131.3 969.22,-138.3"/>
</g>
<!-- TemaEditComponent -->
<g id="node11" class="node">
<title>TemaEditComponent</title>
<polygon fill="#ffffb3" stroke="black" points="327.04,-84.8 190.96,-84.8 190.96,-48.8 327.04,-48.8 327.04,-84.8"/>
<text text-anchor="middle" x="259" y="-62.6" font-family="Times,serif" font-size="14.00">TemaEditComponent</text>
</g>
<!-- TemaEditComponent&#45;&gt;AppModule -->
<g id="edge11" class="edge">
<title>TemaEditComponent&#45;&gt;AppModule</title>
<path fill="none" stroke="black" d="M259,-84.84C259,-106.46 259,-139.8 259,-139.8 259,-139.8 969.22,-139.8 969.22,-139.8"/>
<polygon fill="black" stroke="black" points="969.22,-143.3 979.22,-139.8 969.22,-136.3 969.22,-143.3"/>
</g>
<!-- UsuarioEditComponent -->
<g id="node12" class="node">
<title>UsuarioEditComponent</title>
<polygon fill="#ffffb3" stroke="black" points="172.48,-84.8 23.52,-84.8 23.52,-48.8 172.48,-48.8 172.48,-84.8"/>
<text text-anchor="middle" x="98" y="-62.6" font-family="Times,serif" font-size="14.00">UsuarioEditComponent</text>
</g>
<!-- UsuarioEditComponent&#45;&gt;AppModule -->
<g id="edge12" class="edge">
<title>UsuarioEditComponent&#45;&gt;AppModule</title>
<path fill="none" stroke="black" d="M98,-84.89C98,-107.93 98,-144.8 98,-144.8 98,-144.8 969.25,-144.8 969.25,-144.8"/>
<polygon fill="black" stroke="black" points="969.25,-148.3 979.25,-144.8 969.25,-141.3 969.25,-148.3"/>
</g>
<!-- AppComponent  -->
<g id="node15" class="node">
<title>AppComponent </title>
<polygon fill="#80b1d3" stroke="black" points="1075.44,-214.8 966.56,-214.8 966.56,-178.8 1075.44,-178.8 1075.44,-214.8"/>
<text text-anchor="middle" x="1021" y="-192.6" font-family="Times,serif" font-size="14.00">AppComponent </text>
</g>
<!-- AppModule&#45;&gt;AppComponent  -->
<g id="edge14" class="edge">
<title>AppModule&#45;&gt;AppComponent </title>
<path fill="none" stroke="black" stroke-dasharray="1,5" d="M1021,-149.91C1021,-149.91 1021,-168.79 1021,-168.79"/>
<polygon fill="black" stroke="black" points="1017.5,-168.79 1021,-178.79 1024.5,-168.79 1017.5,-168.79"/>
</g>
<!-- AppRoutingModule -->
<g id="node14" class="node">
<title>AppRoutingModule</title>
<polygon fill="#8dd3c7" stroke="black" points="1910.27,-84.8 1907.27,-88.8 1886.27,-88.8 1883.27,-84.8 1781.73,-84.8 1781.73,-48.8 1910.27,-48.8 1910.27,-84.8"/>
<text text-anchor="middle" x="1846" y="-62.6" font-family="Times,serif" font-size="14.00">AppRoutingModule</text>
</g>
<!-- AppRoutingModule&#45;&gt;AppModule -->
<g id="edge13" class="edge">
<title>AppRoutingModule&#45;&gt;AppModule</title>
<path fill="none" stroke="black" d="M1846,-84.89C1846,-107.93 1846,-144.8 1846,-144.8 1846,-144.8 1072.76,-144.8 1072.76,-144.8"/>
<polygon fill="black" stroke="black" points="1072.76,-141.3 1062.76,-144.8 1072.76,-148.3 1072.76,-141.3"/>
</g>
</g>
</svg>
